<?xml version="1.0" encoding="utf-8"?>
<!-- Generator: Adobe Illustrator 26.0.2, SVG Export Plug-In . SVG Version: 6.00 Build 0)  -->
<svg version="1.1" id="svg1325782892_2995" xmlns="http://www.w3.org/2000/svg" xmlns:xlink="http://www.w3.org/1999/xlink" x="0px"
	 y="0px" viewBox="0 0 17 28" style="enable-background:new 0 0 17 28;" xml:space="preserve">
<style type="text/css">
	.st0{fill:#FFEED9;}
</style>
<path class="st0" d="M6.4,17.4c-0.2,0-0.3,0-0.5,0c-0.2,0-0.3-0.1-0.4-0.2c0,0,0.1-0.1,0.4-0.2c0.6-0.3,1.3-0.4,2.2-0.5
	c0.3,0,0.5,0,0.8,0c0,0-0.1,0-0.1,0c0,0,0.1,0,0.2,0c0.1,0,0.2,0,0.5-0.1l-0.2,0c0.1,0,0.1,0,0.2,0l-0.5,0.1l0.2-0.1
	c-0.2,0.1-0.3,0.1-0.5,0.2l0,0l0,0c0,0,0,0-0.1,0c0,0,0,0,0.1,0c0,0,0.1,0,0.1-0.1c0,0,0.1,0,0.2-0.1l-0.1,0c0.1,0,0.3-0.1,0.6-0.3
	c1.1-0.8,2.1-1.7,2.9-2.9c0.9-1.4,1.5-3,1.8-4.6c0.1-0.4,0.1-0.8,0.1-1.3c0-1.3-0.3-2.5-1-3.5c-1-1.4-2.5-2.2-4.4-2.2
	c-0.3,0-0.6,0-1.1,0.1l0,0h0.1c0,0-0.1,0-0.1,0c0,0-0.1,0-0.1,0l0.1,0l-0.2,0l0.2,0L7.5,1.8C7.3,1.9,7.1,2,7.1,2c0,0,0,0,0,0
	c0,0,0,0,0,0L6.5,2.3C5.6,2.9,4.8,3.6,4.1,4.5C3.3,5.5,2.7,6.7,2.3,8C2.2,8.5,2.2,8.9,2.2,9.4c0,0.4,0.1,0.7,0.2,1
	c0.1,0.3,0.3,0.6,0.4,0.8c0.2,0.2,0.4,0.3,0.6,0.3l-1.9,0.6l-0.4-0.3c0-0.1,0.3-0.2,0.8-0.3c0.5-0.1,0.8-0.2,0.9-0.2
	c0,0,0.1,0,0.2,0c0.4,0.1,0.6,0.2,0.6,0.2c0,0.1-0.2,0.1-0.5,0.2c-0.7,0.3-1.2,0.4-1.6,0.4c-0.2,0-0.4-0.1-0.6-0.2
	C0.3,11.6,0,10.9,0,10c0-0.9,0.2-1.8,0.6-2.5C1.1,6.1,1.9,5,2.8,4.1c1-0.9,2-1.6,3.2-2.1c1.7-0.7,3.4-1.1,5-1.1
	c1.5,0,2.7,0.4,3.8,1.1c0.6,0.4,1,0.9,1.4,1.6c0.5,0.9,0.8,2,0.8,3.3c0,1.3-0.3,2.7-0.9,4c-0.6,1.3-1.3,2.4-2.2,3.3
	c-1.1,1.1-2.3,1.8-3.6,2.2c-1.1,0.4-2.2,0.7-3.4,0.9C6.7,17.4,6.6,17.4,6.4,17.4z M3.5,27.1c-0.2,0-0.4-0.1-0.5-0.2
	c-0.2-0.2-0.3-0.5-0.3-0.8c0-0.3,0.1-0.7,0.2-1.3c0,0,0,0,0,0c0.6-2.1,1.2-4.2,1.9-6.3l0.7-2.2c0.6-2,1.2-4.2,1.8-6.5
	c0.2-0.7,0.3-1.2,0.3-1.5c0-0.1,0-0.2,0-0.2c0-0.1,0-0.2,0-0.2c0.1,0,0.2,0,0.2,0c-0.3,0-0.5,0-0.5,0c0,0,0.1-0.1,0.2-0.2
	C7.9,7.5,8.4,7.4,9,7.2l-0.2,0l0.8-0.2c0,0-0.1,0-0.1,0C9.8,7,10.1,7,10.4,6.9c0.3,0,0.4,0.3,0.4,0.9c0,0.2,0,0.5-0.1,0.9
	c0,0.1,0,0.1,0,0.2c-0.1,0.4-0.2,0.7-0.3,1.1c-0.7,2.5-1.4,5-2.2,7.4c-0.3,0.8-0.8,2.5-1.6,5.1C6.2,23.8,6,24.6,6,25
	c0,0.1,0,0.2,0,0.4c0,0.2,0.1,0.4,0.4,0.6c-0.1,0-0.1,0-0.1,0h0.2c0,0,0,0,0,0s0,0,0,0l0,0c0,0.1-0.2,0.2-0.6,0.3
	C4.9,26.9,4,27.1,3.5,27.1z"/>
</svg>
