<?xml version="1.0" encoding="utf-8"?>
<!-- Generator: Adobe Illustrator 26.0.2, SVG Export Plug-In . SVG Version: 6.00 Build 0)  -->
<svg version="1.1" id="Layer_1" xmlns="http://www.w3.org/2000/svg" xmlns:xlink="http://www.w3.org/1999/xlink" x="0px" y="0px"
	 viewBox="0 0 767 303" style="enable-background:new 0 0 767 303;" xml:space="preserve">
<style type="text/css">
	.st0{fill:#FFEED9;}
</style>
<g>
	<g>
		<path class="st0" d="M63.5,168.8c-1.5,0-3.2-0.1-5.1-0.2c-2,0-3.3-0.5-4.1-1.5c0-0.2,1.1-0.7,3.4-1.5c5.9-2.1,13-3.3,21.2-3.7
			c2.6-0.1,5.2-0.2,7.8-0.4c-0.4,0-0.6,0-0.7,0.1c0-0.1,0.8-0.2,2.4-0.4c0.7,0,2.1-0.2,4.4-0.5l-2.2,0.2c0.7,0,1.4-0.1,2.1-0.2
			l-5.2,1.1l2.1-0.5c-1.8,0.4-3.4,0.8-4.6,1.2l0.2-0.1l-0.4,0.1c-0.2,0.2-0.5,0.2-0.8,0.2c0.1,0,0.2,0,0.5-0.1
			c0.3-0.1,0.6-0.2,1-0.4c0.4-0.2,0.9-0.3,1.5-0.4l-0.7,0.1c0.5-0.1,2.5-0.9,5.9-2.6c11-5.7,20.3-13.1,27.8-22.2
			c8.9-10.7,14.8-22.3,17.7-34.9c0.7-3.2,1.1-6.3,1.1-9.5c0-10.1-3.3-18.8-10-26C118.9,56,104.8,50.6,86.7,50.6
			c-2.7,0-6.2,0.2-10.4,0.7l0.1-0.1h0.8c-0.4,0-0.8,0.1-1.2,0.2c-0.4,0.1-0.9,0.2-1.3,0.2l1.4-0.2l-1.9,0.4l1.9-0.4l-1.9,0.5
			c-2.3,0.7-3.7,1.2-4.2,1.4c-0.1,0-0.3,0-0.3,0.1c-0.1,0.1-0.1,0.1-0.2,0.1l-4.9,2.1c-8.8,4.1-16.7,9.7-23.8,16.6
			c-7.6,7.5-13.3,16.3-16.9,26.5c-1.2,3.5-1.8,6.8-1.8,9.8c0,2.6,0.5,5.2,1.5,7.5c1,2.4,2.4,4.4,4.3,6.1c1.9,1.7,4,2.5,6.2,2.5
			l-18.4,4.7l-3.5-2.1c0-0.6,2.4-1.5,7.3-2.6c4.9-1.1,7.7-1.6,8.5-1.6c0.4,0,1,0.1,2,0.4c3.7,0.9,5.5,1.4,5.5,1.5
			c0,0.5-1.5,1.1-4.4,1.9c-6.6,2-11.7,3-15.4,3c-2.1,0-4.2-0.5-6.3-1.4C4,124.9,1.2,120,1,113.3c0.3-6.8,2.1-13.2,5.5-19
			C12,84.2,19.3,75.8,28.2,69c9.5-7,19.8-12.2,30.9-15.6C76,47.8,92.3,45,108.2,45c14.2,0,26.4,2.8,36.5,8.3c5.4,3,10,7,13.9,12
			c5.3,6.9,7.9,15.1,7.9,24.6c0,10.1-2.9,20.3-8.6,30.5c-5.6,9.8-12.8,18.1-21.6,25c-10.7,7.9-22.4,13.5-35.1,16.7
			c-10.9,3.2-21.9,5.4-33.1,6.5C66.6,168.8,65.1,168.8,63.5,168.8z M34.8,241.8c-2.3,0-4-0.5-5.3-1.4c-2-1.7-3-3.8-3-6.3
			c0-2.5,0.8-5.6,2.3-9.5c0.1-0.1,0.1-0.2,0.1-0.3c5.9-15.9,12.1-31.6,18.7-47.2l6.8-16.5c6.2-15,12.1-31.3,17.9-48.8
			c1.8-5.2,2.8-9,3-11.3c0-0.6-0.1-1.2-0.2-1.8c-0.1-0.6-0.2-1.1-0.2-1.7c1,0,1.7,0.1,2.2,0.4c-3,0-4.5-0.1-4.5-0.4
			c0-0.2,0.7-0.7,2.2-1.3c3.2-1.2,7.6-2.3,13.3-3.5l-1.5,0.4l7.8-1.5c-0.1,0.1-0.6,0.2-1.3,0.2c2.9-0.6,6-1,9.1-1.2
			c2.9,0,4.3,2.3,4.3,7c0,1.6-0.4,3.8-1.2,6.5c-0.2,0.5-0.4,1.1-0.4,1.6c-0.8,2.7-1.7,5.6-2.7,8.5c-6.6,19.1-13.8,37.7-21.6,55.8
			c-2.7,6.3-7.9,19.2-15.5,38.6c-3.6,9-5.4,14.9-5.4,17.9c0,0.6,0.1,1.7,0.3,3.3c0.2,1.6,1.4,3,3.8,4.3c-1,0.2-1.4,0.3-1.4,0.4h1.6
			c0.1,0.2,0.3,0.2,0.4,0.2s0.2,0,0.2,0.1l-0.2,0.2c0,0.5-1.8,1.2-5.5,2.3C48.3,240.2,40.2,241.8,34.8,241.8z"/>
		<path class="st0" d="M143.5,227.3c-7.3,0-11-1.6-11-4.9c0-1.9,0.1-3.5,0.4-4.8c1.5-7.2,4-14.1,7.4-20.7
			c4.7-9.8,9.5-19.6,14.3-29.4l6.9-13.9c1-2.2,2.1-4.3,3.2-6.4c2.6-4.8,4.9-9.8,7-14.8l0.3-0.8c1.2-2.8,1.9-5.1,1.9-6.9
			c0-1.7-0.4-3.2-1.3-4.3c-0.3-0.3-0.6-0.5-0.9-0.7l-0.4-0.1l5.7-0.8c1.2,0,3.9-0.5,8.1-1.6c3.2-0.7,4.9-1.3,5.2-1.8
			c0-0.1-0.2-0.1-0.5-0.1c-1.1,0-2.1,0.4-3,1.2l-1.2,1.1c-0.5,0.5-1.5,0.9-2.9,1.2c-0.9,0.4-3,0.9-6.4,1.6l-1.3,0.1
			c-2.6,0.5-4.7,0.7-6,0.7h-0.3c0.3-1.4,1.5-2.4,3.7-3l0.2-0.1c6.8-2.3,12.8-3.5,18-3.5c4.4,0,7.8,1.2,10.3,3.6
			c1.7,1.8,2.5,3.9,2.5,6.4c0,2.6-1.9,7.8-5.8,15.5l-8,16.3c-3.3,6.9-6.7,13.7-10.1,20.5c-7.4,14.3-11.9,25.1-13.4,32.5v0.1
			c-0.4,1.5-0.6,2.9-0.6,4.3c0,1.5,0.1,2.5,0.4,3c0.3,0.5,0.4,1.1,0.4,1.5c0,0.5,0.1,0.8,0.1,1c0,0.2,0.3,0.4,0.9,0.8l-0.7-0.4v0.1
			c1.2,0.5,1.8,0.8,1.8,1.1c0,0.3,0.1,0.4,0.2,0.5c0.5,0,0.8,0,0.8,0.1c-2.4,0-5.1,0.5-7.9,1.5l-0.7,0.1c0.2-0.2,0.7-0.4,1.4-0.6
			c0.4-0.1,1.5-0.5,3.2-1.4c6.3-3.5,13.2-8.6,20.8-15.3c8.2-6.8,15.8-13.7,22.8-20.9c3.2-3.3,6.5-6.6,9.9-9.7
			c1.1-0.8,2.6-1.2,4.5-1.4l1.9-0.4c1,0,1.8-0.1,2.5-0.2l1.3-0.1c-2.8,4-8.2,9.9-16.4,17.7c-13.9,13.9-25.3,23.2-34.1,28.1
			c-9.2,4.4-18.8,7-28.9,7.7h-1.2C146.9,227.2,145.2,227.3,143.5,227.3z M176,98.7l-2.1-0.1c-0.6-0.1-0.9-0.2-0.9-0.4
			c0-0.1,0.2-0.2,0.5-0.5c1.4-0.7,2.6-1.6,3.6-2.8l-0.4,0.6c1.6-2.4,2.4-5.1,2.4-7.9c0-0.7,0-1.4-0.1-2.2c-0.1-0.7-0.1-1.6-0.1-2.6
			c0.1-0.3,0.1-0.7,0.1-1.1c0-0.4,0.1-0.7,0.2-0.9c0.1-0.2,0.2-0.5,0.3-0.8c-0.2-0.1-0.3-0.2-0.3-0.2c0-0.1,0.3-0.2,0.9-0.5l0.2-0.1
			c0.8-0.4,2.1-0.8,3.8-1.3c4.8-1.4,9.1-2.1,13-2.1c3.2,0,6.2,0.7,9.1,2c2.9,1.5,4.3,3.7,4.3,6.5c-0.7,4.5-3.8,7.5-9.3,8.9
			c-1.9,1-7.2,2.4-15.9,4.2c-3.2,0.5-4.9,0.8-5.2,0.8H180c0-0.2,6.9-1.8,20.8-4.8c-6.4,2.1-12.9,3.7-19.5,4.7l-0.9,0.1
			C179,98.5,177.5,98.7,176,98.7z"/>
		<path class="st0" d="M249.7,228.9c-5.5,0-12.5-0.7-21.1-2.2c-9.9-1.5-17.1-2.3-21.7-2.3c-4.3,0-8.4,0.5-12.1,1.4l0.7-0.2
			c-2.8,0.8-5.5,1.8-8,3.2c8.9-12.3,14.4-19.9,16.5-22.9c21.9-10.5,41.4-24.3,58.4-41.4l0.7-0.7h0.1l2.8-2.8c2.2-2.5,3.5-3.9,4-4.2
			l0.7-0.7l-0.9,0.8l1-1.1c0.5-0.7,1.2-1.5,2-2.3c0.3-0.2,0.6-0.6,0.9-1.2l0.3-0.4c0,0.1-0.1,0.2-0.4,0.5l-0.3,0.6H273h0.1
			c0-0.2,0.3-0.6,1-1.3c0.1-0.3,0.6-0.9,1.4-1.8c0.1-0.2,0.3-0.4,0.5-0.6c0.2-0.2,0.3-0.4,0.3-0.5l-0.9,1.2l0.9-1.1
			c0.3-0.6,0.7-1.2,1.3-1.9h0.1l-0.3,0.4c-0.3,0.3-0.5,0.7-0.8,1.2c-0.1,0.2-0.3,0.2-0.3,0.2c0.5-0.5,1-1.1,1.3-1.6
			c0.1-0.3,0.3-0.6,0.4-0.8c0.1-0.2,0.3-0.5,0.6-0.9l0.3-0.5l-0.4,0.8l-0.6,0.7l0.7-0.9c0.4-0.5,0.5-0.8,0.5-0.9c0,0,0-0.1,0.1-0.1
			l-0.1,0.1c-0.1,0.1-0.2,0.2-0.3,0.5c-0.1,0.2-0.2,0.4-0.2,0.5l-0.1,0.2l0.1-0.2c0-0.1,0.1-0.2,0.3-0.5v-0.1
			c-0.3-0.7-0.5-1.2-0.6-1.5c-0.1-0.3-0.2-0.5-0.3-0.5c0,1,0.1,1.8,0.4,2.5v0.1h0.1l0.2-0.6c0.4-1.4,0.7-2.6,0.7-3.5v0.7
			c0-1.8-0.4-3.4-1.3-4.8c-1.2-1.8-3.6-2.7-7.3-2.7c-1.7,0-3.4,0.2-5.1,0.5c-3.9,0.5-14.1,1.1-30.7,2l-3.4,0.2
			c-3.2,0.2-6.4,0.4-9.6,0.5c-0.9,0.2-2.1,0.2-3.6,0.2c-2.8,0-4.8-0.7-6.2-2c-0.7-0.9-1-1.8-1-2.8c0-2.2,1.2-4.8,3.7-7.9
			c3.9-6.2,8.1-11.5,12.6-15.8c0.8-0.9,1.6-1.3,2.3-1.3c0.3,0,0.7,0.1,1.1,0.4c0.1,0.1,0.1,0.2,0.1,0.4c0,0.3-0.2,0.9-0.7,1.7
			c-0.4,0.8-1.1,1.9-1.9,3.1c-0.8,1.2-1.7,2.4-2.5,3.4c-0.8,1.1-1.4,1.8-1.6,2.3l-0.2,0.2c-1.8,2.4-3.7,4.7-5.7,6.9
			c-0.1,0.1-0.2,0.2-0.3,0.4c-0.1,0.2-0.3,0.4-0.7,0.8c-0.4,0.4-0.7,0.7-1.1,0.9c-0.4,0.3-0.7,0.4-0.9,0.4l-0.7-0.1l-0.8,0.1
			l0.6-0.1l-0.9,0.2c0-0.3,1.2-1.5,3.7-3.5c0.9-1.1,1.7-2.2,2.5-3.4c4.2-5.5,6.7-9,7.6-10.5l1.1-2c-0.1,0-0.3,0.5-0.4,1.4v-0.6
			c0.1,1.7,0.8,2.9,2.1,3.6c1.3,0.7,2.7,1,4.2,1c2.6,0,5.3-0.2,8-0.5l4.4-0.4c4.6-0.2,9.2-0.5,13.7-0.8l26.3-1.4
			c1.8,0,3.3,0.1,4.4,0.2s2.2,0.7,3.2,1.7c1.2,1.8,1.9,3.7,1.9,5.6c0,1.6-0.6,3.7-1.8,6.5c-1,2.2-2.9,5.3-5.8,9.5
			c-10.3,15-21.6,29.1-33.9,42.1c-19.9,20.9-42.4,37.8-67.6,50.7l-0.4,0.1c-0.1,0-0.1,0-0.1-0.1c0-0.4,0-0.6,0.1-0.8
			c0-0.1,0.2-0.5,0.6-1.1c1.7-3.3,3.3-5.8,4.7-7.4c2.9-4,5.4-7.3,7.7-9.7c1.3-1.8,2.6-3.1,4-4c7.9-4,17.1-6,27.6-6
			c5.8,0,13.2,0.7,22.1,2c7.8,1.2,14.4,1.9,19.6,2.2c2.3,0.2,4.7,0.3,7,0.3c2.6,0,5.1-0.2,7.6-0.7h-0.3l-0.2,0.1
			c3.7-0.9,7.3-2.5,10.6-4.7c2.7-2.1,5.1-4.4,7.1-6.9l1.5-1.9v0.1l-0.5,0.5l0.5-0.5c6.3-8.2,12.4-14.5,18.1-18.8l0.2-0.1l-0.2,1.1
			h-0.1c-0.6,1.3-1.3,2.5-2.2,3.4v0.1c-1.5,2.3-3.3,4.4-5.4,6.2c-1.9,1.6-4.3,3.8-7,6.8l-0.8,0.9l-0.1,0.2l-1.4,1.6l-5.4,6.5
			l-2.6,3.3v-0.1l0.6-0.6l-0.8,0.9c-10.5,12.7-20.3,20.4-29.5,23.2C264,227.6,257.3,228.9,249.7,228.9z"/>
		<path class="st0" d="M353.3,228.9c-5.5,0-12.5-0.7-21.1-2.2c-9.9-1.5-17.1-2.3-21.7-2.3c-4.3,0-8.4,0.5-12.1,1.4l0.7-0.2
			c-2.8,0.8-5.5,1.8-8,3.2c8.9-12.3,14.4-19.9,16.5-22.9c21.9-10.5,41.4-24.3,58.4-41.4l0.7-0.7h0.1l2.8-2.8c2.2-2.5,3.5-3.9,4-4.2
			l0.7-0.7l-0.9,0.8l1-1.1c0.5-0.7,1.2-1.5,2-2.3c0.3-0.2,0.6-0.6,0.9-1.2l0.3-0.4c0,0.1-0.1,0.2-0.4,0.5l-0.3,0.6h-0.1h0.1
			c0-0.2,0.3-0.6,1-1.3c0.1-0.3,0.6-0.9,1.4-1.8c0.1-0.2,0.3-0.4,0.5-0.6c0.2-0.2,0.3-0.4,0.3-0.5l-0.9,1.2l0.9-1.1
			c0.3-0.6,0.7-1.2,1.3-1.9h0.1l-0.3,0.4c-0.3,0.3-0.5,0.7-0.8,1.2c-0.1,0.2-0.3,0.2-0.3,0.2c0.5-0.5,1-1.1,1.3-1.6
			c0.1-0.3,0.3-0.6,0.4-0.8c0.1-0.2,0.3-0.5,0.6-0.9l0.3-0.5l-0.4,0.8l-0.5,0.7l0.7-0.9c0.4-0.5,0.5-0.8,0.5-0.9c0,0,0-0.1,0.1-0.1
			l-0.1,0.1c-0.1,0.1-0.2,0.2-0.3,0.5c-0.1,0.2-0.2,0.4-0.2,0.5L382,146l0.1-0.2c0-0.1,0.1-0.2,0.3-0.5v-0.1
			c-0.3-0.7-0.5-1.2-0.6-1.5c-0.1-0.3-0.2-0.5-0.3-0.5c0,1,0.1,1.8,0.4,2.5v0.1h0.1l0.2-0.6c0.4-1.4,0.7-2.6,0.7-3.5v0.7
			c0-1.8-0.4-3.4-1.3-4.8c-1.2-1.8-3.6-2.7-7.3-2.7c-1.7,0-3.4,0.2-5.1,0.5c-3.9,0.5-14.1,1.1-30.7,2l-3.4,0.2
			c-3.2,0.2-6.4,0.4-9.6,0.5c-0.9,0.2-2.1,0.2-3.6,0.2c-2.8,0-4.8-0.7-6.2-2c-0.7-0.9-1-1.8-1-2.8c0-2.2,1.2-4.8,3.7-7.9
			c3.9-6.2,8.1-11.5,12.6-15.8c0.8-0.9,1.6-1.3,2.3-1.3c0.3,0,0.7,0.1,1.1,0.4c0.1,0.1,0.1,0.2,0.1,0.4c0,0.3-0.2,0.9-0.7,1.7
			c-0.4,0.8-1.1,1.9-1.9,3.1c-0.8,1.2-1.7,2.4-2.5,3.4c-0.8,1.1-1.4,1.8-1.6,2.3l-0.2,0.2c-1.8,2.4-3.7,4.7-5.7,6.9
			c-0.1,0.1-0.2,0.2-0.3,0.4c-0.1,0.2-0.3,0.4-0.7,0.8c-0.4,0.4-0.7,0.7-1.1,0.9c-0.4,0.3-0.7,0.4-0.9,0.4l-0.7-0.1l-0.8,0.1
			l0.6-0.1l-0.9,0.2c0-0.3,1.2-1.5,3.7-3.5c0.9-1.1,1.7-2.2,2.5-3.4c4.2-5.5,6.7-9,7.6-10.5l1.1-2c-0.1,0-0.3,0.5-0.4,1.4v-0.6
			c0.1,1.7,0.8,2.9,2.1,3.6c1.3,0.7,2.7,1,4.2,1c2.6,0,5.3-0.2,8-0.5l4.4-0.4c4.6-0.2,9.2-0.5,13.7-0.8l26.3-1.4
			c1.8,0,3.3,0.1,4.4,0.2c1.1,0.1,2.2,0.7,3.2,1.7c1.2,1.8,1.9,3.7,1.9,5.6c0,1.6-0.6,3.7-1.8,6.5c-1,2.2-2.9,5.3-5.8,9.5
			c-10.3,15-21.6,29.1-33.9,42.1c-19.9,20.9-42.4,37.8-67.6,50.7l-0.4,0.1c-0.1,0-0.1,0-0.1-0.1c0-0.4,0-0.6,0.1-0.8
			c0-0.1,0.2-0.5,0.6-1.1c1.7-3.3,3.3-5.8,4.7-7.4c2.9-4,5.4-7.3,7.7-9.7c1.3-1.8,2.6-3.1,4-4c7.9-4,17.1-6,27.6-6
			c5.8,0,13.2,0.7,22.1,2c7.8,1.2,14.4,1.9,19.6,2.2c2.3,0.2,4.7,0.3,7,0.3c2.6,0,5.1-0.2,7.6-0.7h-0.3l-0.2,0.1
			c3.7-0.9,7.3-2.5,10.6-4.7c2.7-2.1,5.1-4.4,7.2-6.9l1.5-1.9v0.1l-0.6,0.5l0.6-0.5c6.3-8.2,12.4-14.5,18.1-18.8l0.2-0.1l-0.2,1.1
			h-0.1c-0.6,1.3-1.3,2.5-2.2,3.4v0.1c-1.5,2.3-3.3,4.4-5.4,6.2c-1.9,1.6-4.3,3.8-7,6.8l-0.8,0.9l-0.1,0.2l-1.4,1.6l-5.4,6.5
			l-2.6,3.3v-0.1l0.5-0.6l-0.8,0.9c-10.5,12.7-20.3,20.4-29.5,23.2C367.6,227.6,360.8,228.9,353.3,228.9z"/>
		<path class="st0" d="M429,228.2c-7,0-12.2-3-15.7-8.9c-2.3-4.3-3.5-8.9-3.5-13.8c0-5.6,1.2-12.2,3.5-19.8
			c2.8-9.8,6.7-19,11.9-27.7c5.4-9.3,12.1-17.5,20-24.6c7.9-7,16.8-12.3,26.6-15.8c5.3-1.8,10.6-3.3,15.9-4.4
			c7.4-1.9,13.6-2.8,18.5-2.8c3.1,0,5.6,1.3,7.7,3.9c2.5,3.6,3.7,7.5,3.7,11.7c0,0.5-0.1,2-0.2,4.6c-0.1,2.6-1.8,5.7-5.1,9.2
			c-0.6,0.6-1.9,1.1-3.9,1.3l-3.1,0.5l-2,0.1c1-2.4,1.4-4.8,1.4-7.1c0-3.9-1.4-7.5-4.2-11c-4-4-9.6-6-16.8-6l-0.9,0.1h-1.2l0.7-0.1
			l-1.3,0.1l3-0.6c1.9-0.4,3.1-0.6,3.7-0.6c0.5,0,0.9-0.1,0.9-0.2c1.8-0.3,3.6-0.7,5.4-1.3l2-0.6l-1.8,0.7l-0.5,0.4
			c-0.7,0.2-1.3,0.6-2,1.2c-9.1,5.3-17.1,12.1-24.1,20.4l0.4-0.6c-9.5,11.5-16.5,24.6-21,39.1c-1.5,4.7-2.8,9.9-3.6,15.6
			c-0.4,2.4-0.5,4.7-0.5,7c0,3.1,0.5,6.7,1.5,10.7c1,4,4.1,7.4,9.1,10.1l-0.8-0.3c1.8,0.8,3.3,1.2,4.7,1.2h1.4
			c0,0.2-3.4,0.9-10.1,1.9c-6.2,1.6-9.5,2.3-9.9,2.3c0-0.1,0.5-0.3,1.4-0.6l0.4-0.2c1-0.4,2-0.8,3-1.3l1.5-0.6
			c2.5-1.2,4.9-2.8,7.1-4.7l0.9-0.6c8.5-6.7,17.5-16.6,27.1-29.8c2.9-4.4,5.8-8.7,8.6-13.1c4-6.1,8.1-12.2,12.3-18.1
			c0.4-0.7,1.9-1.3,4.4-1.8l1.1-0.1c2-0.5,3.3-0.7,4.1-0.7c0.1-0.1,0.4-0.1,1-0.1c0.4,0,0.7,0,0.7,0.1c-4.7,9-9.8,17.7-15.2,26.2
			l-3.3,5.3c-4.4,7.4-9.2,14.4-14.5,21.1c-4.5,5.3-7.9,8.8-10.3,10.4c-0.8,0.5-1.6,1.1-2.3,1.8c-1.5,1.4-3.2,2.5-4.9,3.4
			c-6.9,2.8-14,4.7-21.2,5.8c-0.6,0.1-1.1,0.2-1.7,0.3C434.8,227.7,431.5,228.2,429,228.2z M491.6,223.7H491c-5.4,0-9.4-1.1-12-3.3
			c-1.4-1.2-2.1-2.8-2.1-4.8c0-0.8,0.1-1.8,0.4-2.9c0.5-1.6,1.7-4.3,3.6-7.9c3.4-6.4,6.6-12.9,9.3-19.6l1.4-3.5
			c3.2-6.8,5.2-12.4,5.8-16.7c0.1-1.7,0.7-3.9,1.8-6.5c0.2-0.6,0.3-1.3,0.3-2.1c-0.1-0.2-0.1-0.5-0.1-0.8c0-0.2,0-0.4,0.1-0.6
			c0.1-0.2,0.1-0.4,0.1-0.5c-0.1-0.2-0.2-0.4-0.3-0.6h1.8c-0.7,0.1-1.4,0.1-2.1,0.1c-0.2-0.1-0.3-0.2-0.3-0.2c0-0.1,0.1-0.2,0.2-0.5
			c0.1-0.2,1.2-0.6,3.1-1.2c1.3-0.3,2.1-0.5,2.3-0.5c4.8-1.4,8.8-2.1,12.2-2.1c2.8,0,5.4,0.6,7.7,1.8l-0.4-0.2
			c2.5,1.3,4,2.2,4.6,2.7c1.1,0.9,1.7,2.3,1.7,4c0,1.9-0.8,4.8-2.4,8.9l-0.5,1.6c-2.3,6.1-4.8,12.2-7.6,18.2
			c-2.3,5-4.3,8.8-5.8,11.6c-2.5,4.3-3.7,7.9-3.7,10.7c0,2.3,0.4,4.2,1.2,5.7c0.2,0.3,0.4,0.6,0.5,0.9c0.1,0.3,0.2,0.5,0.4,0.7
			c0.4,0.5,0.5,1.1,0.5,1.5l0.2,0.1c0.9,0.3,1.3,0.5,1.3,0.7c0,0.1-0.4,0.2-1.2,0.2c-1.2,0-3.1,0.3-5.8,0.8c-4.1,1.1-6.5,1.6-7,1.6
			H500c0-0.2,0.7-0.5,2-0.9c7-4,16.3-10.9,27.7-20.9c8-7.2,14.7-14.1,20.2-20.8c2.1-2.6,4.3-5.1,6.6-7.5c0.4-0.4,1-0.7,1.9-0.8
			c0.2,0,0.4,0,0.5-0.1l3.5-0.8c0.1,0,0.3,0,0.8-0.1c0.4-0.1,0.9-0.1,1.5-0.2c0.5,0,1.1-0.1,1.5-0.1c0.5,0,0.8-0.1,0.9-0.2h0.2
			c-2.8,4.4-5.9,8.4-9.5,12.3l-1.9,2.1c-8.6,9.7-16.8,17.8-24.5,24.5l-2.3,2c-3,2.8-6.2,5.3-9.5,7.4c-4,2.1-8.1,3.6-12.5,4.4
			C502.1,222.7,496.9,223.5,491.6,223.7z"/>
		<path class="st0" d="M555.6,228.9c-3.7,0-6.8-0.7-9.5-2.2c-2.1-1.2-3.3-2.8-3.8-4.9c-0.3-1.4-0.4-2.8-0.4-4.3
			c0-3.9,1.4-10,4.3-18.4l1.1-3c1.8-5.4,3.7-10.9,5.6-16.2c8.1-22.7,20.6-52.3,37.4-88.6L604.7,60c3.1-6.6,4.6-10.8,4.6-12.6
			c0-0.4-0.2-1.1-0.7-2.2c-0.1-0.3-0.3-0.7-0.4-1.2c0-0.1-0.1-0.2-0.2-0.3c-0.1-0.1-0.2-0.2-0.2-0.3h0.3c0.1,0.6,0.7,0.9,1.8,0.9
			c1.8,0,4.6-0.8,8.4-2.5c1.1-0.5,1.6-0.7,1.6-0.8l-0.8,0.2h0.2l-0.9,0.4l-0.4,0.1c-2.9,1-5.8,1.8-8.7,2.3l-1,0.1
			c-2.1,0.2-3.6,0.4-4.7,0.4h-0.2c0.7-1,2-1.8,4-2.5l0.5-0.2c6.1-2.1,12.3-3.5,18.7-4.3c0.7-0.1,2.4-0.1,5.2-0.1
			c1.6,0,3,0.3,4.1,0.9c1.1,0.6,2.1,1.4,2.9,2.5c0.8,1.1,1.1,2.2,1,3.3c-0.1,2.5-0.7,4.9-1.8,7.1c-0.8,1.9-6.9,15.3-18.1,40
			c-18.8,41.5-32.7,76-41.7,103.4l-0.3,1.1c-2.1,5.8-3.1,10.7-3.1,14.6c0,1,0,2,0.1,3l0.2,2.1c0.2,2.8,1,5,2.2,6.7
			c0.7,1,1.3,1.5,1.8,1.5c0.1,0,0.1,0,0.1-0.1c0-0.6-1.1-0.9-3.2-0.9c-3,0-6.7,1.1-11.2,3.2l2.2-1.2c10.7-5.3,20.8-12.9,30.4-22.9
			c3.6-3.7,7.1-7.6,10.6-11.6c3.4-4,7-7.9,10.7-11.8c0.3-0.3,1-0.6,2-0.8c0.2,0,0.4,0,0.5-0.1c1.2-0.4,2.5-0.7,3.7-0.8l5.1-0.6
			c-5.3,8.9-11.5,17-18.6,24.5c-6.1,6.4-12.7,12.1-19.8,17.2c-7.3,5.2-16.6,8.7-28.2,10.5C560.9,228.7,558.3,228.9,555.6,228.9z
			 M557,100.2c-6.1,0-9.1-1.7-9.1-5c0-0.2,0.1-1,0.2-2.2c0.1-1.2,0.9-3.2,2.4-5.8c1.5-2.6,2.7-4.6,3.7-6.1l0.1-0.2
			c3.2-4.7,5.8-7.9,7.8-9.7c0.7-0.5,1.1-0.8,1.2-0.8c0.1,0,0.1,0,0.1,0.1l-0.4,0.9c-0.4,1-0.7,2.3-0.7,3.7c0,3.3,2.3,4.9,6.9,4.8
			l2.2-0.1h1.3c9.1-0.7,18.1-1.6,27.1-2.7c14.5-1.8,25-2.7,31.3-2.7c9.1,0,16,0.8,20.6,2.5c1.1,0.4,2.2,1.4,3.3,3.2
			c0,0.1,0,0.1,0.1,0.1v0.1c0,0.2-0.1,0.6-0.3,1.1c-0.6,1.1-2,3.2-4.3,6.4c-1.8,2.4-3.3,3.8-4.4,4.2c-2.5,0.7-5.2,1.1-8.1,1.1
			c-1.5,0-3.7-0.1-6.7-0.4c-2.1-0.2-4.3-0.2-6.4-0.2c-4.8,0-9.5,0.4-14.1,1.2c-1.2,0.2-2.4,0.3-3.6,0.5c-6.7,0.9-12.2,1.6-16.4,2.3
			c-5.9,1.1-11.8,1.9-17.7,2.6C565.4,99.8,560,100.2,557,100.2z"/>
		<path class="st0" d="M627.6,228.2c-7,0-12.2-3-15.7-8.9c-2.3-4.3-3.5-8.9-3.5-13.8c0-5.6,1.2-12.2,3.5-19.8
			c2.8-9.8,6.7-19,11.9-27.7c5.4-9.3,12.1-17.5,20-24.6c7.9-7,16.8-12.3,26.6-15.8c5.3-1.8,10.6-3.3,15.9-4.4
			c7.4-1.9,13.6-2.8,18.5-2.8c3.1,0,5.6,1.3,7.7,3.9c2.5,3.6,3.7,7.5,3.7,11.7c0,0.5-0.1,2-0.2,4.6c-0.1,2.6-1.8,5.7-5.1,9.2
			c-0.6,0.6-1.9,1.1-3.9,1.3l-3.1,0.5l-2,0.1c1-2.4,1.4-4.8,1.4-7.1c0-3.9-1.4-7.5-4.2-11c-4-4-9.6-6-16.8-6l-0.9,0.1h-1.2l0.7-0.1
			l-1.3,0.1l3-0.6c1.9-0.4,3.1-0.6,3.7-0.6c0.5,0,0.9-0.1,0.9-0.2c1.8-0.3,3.6-0.7,5.4-1.3l2-0.6l-1.8,0.7l-0.5,0.4
			c-0.7,0.2-1.3,0.6-2,1.2c-9.1,5.3-17.1,12.1-24.1,20.4l0.4-0.6c-9.5,11.5-16.5,24.6-21,39.1c-1.5,4.7-2.8,9.9-3.6,15.6
			c-0.4,2.4-0.5,4.7-0.5,7c0,3.1,0.5,6.7,1.5,10.7c1,4,4.1,7.4,9.1,10.1l-0.8-0.3c1.8,0.8,3.3,1.2,4.7,1.2h1.4
			c0,0.2-3.4,0.9-10.1,1.9c-6.2,1.6-9.5,2.3-9.9,2.3c0-0.1,0.5-0.3,1.4-0.6l0.4-0.2c1-0.4,2-0.8,3-1.3l1.5-0.6
			c2.5-1.2,4.9-2.8,7.1-4.7l0.9-0.6c8.5-6.7,17.5-16.6,27.1-29.8c2.9-4.4,5.8-8.7,8.6-13.1c4-6.1,8.1-12.2,12.3-18.1
			c0.4-0.7,1.9-1.3,4.4-1.8l1.1-0.1c2-0.5,3.3-0.7,4.1-0.7c0.1-0.1,0.4-0.1,1-0.1c0.4,0,0.7,0,0.7,0.1c-4.7,9-9.8,17.7-15.2,26.2
			l-3.3,5.3c-4.4,7.4-9.2,14.4-14.5,21.1c-4.5,5.3-7.9,8.8-10.3,10.4c-0.8,0.5-1.6,1.1-2.3,1.8c-1.5,1.4-3.2,2.5-4.9,3.4
			c-6.9,2.8-14,4.7-21.2,5.8c-0.6,0.1-1.1,0.2-1.7,0.3C633.4,227.7,630,228.2,627.6,228.2z M690.2,223.7h-0.7c-5.4,0-9.4-1.1-12-3.3
			c-1.4-1.2-2.1-2.8-2.1-4.8c0-0.8,0.1-1.8,0.4-2.9c0.5-1.6,1.7-4.3,3.6-7.9c3.4-6.4,6.6-12.9,9.3-19.6l1.4-3.5
			c3.2-6.8,5.2-12.4,5.8-16.7c0.1-1.7,0.7-3.9,1.8-6.5c0.2-0.6,0.3-1.3,0.3-2.1c-0.1-0.2-0.1-0.5-0.1-0.8c0-0.2,0-0.4,0.1-0.6
			c0.1-0.2,0.1-0.4,0.1-0.5c-0.1-0.2-0.2-0.4-0.3-0.6h1.8c-0.7,0.1-1.4,0.1-2.1,0.1c-0.2-0.1-0.3-0.2-0.3-0.2c0-0.1,0.1-0.2,0.2-0.5
			c0.1-0.2,1.2-0.6,3.1-1.2c1.3-0.3,2.1-0.5,2.3-0.5c4.8-1.4,8.8-2.1,12.2-2.1c2.8,0,5.4,0.6,7.7,1.8l-0.4-0.2
			c2.5,1.3,4,2.2,4.6,2.7c1.1,0.9,1.7,2.3,1.7,4c0,1.9-0.8,4.8-2.4,8.9l-0.5,1.6c-2.3,6.1-4.8,12.2-7.6,18.2
			c-2.3,5-4.3,8.8-5.8,11.6c-2.5,4.3-3.7,7.9-3.7,10.7c0,2.3,0.4,4.2,1.2,5.7c0.2,0.3,0.4,0.6,0.5,0.9c0.1,0.3,0.2,0.5,0.4,0.7
			c0.4,0.5,0.5,1.1,0.5,1.5l0.2,0.1c0.9,0.3,1.3,0.5,1.3,0.7c0,0.1-0.4,0.2-1.2,0.2c-1.2,0-3.1,0.3-5.8,0.8c-4.1,1.1-6.5,1.6-7,1.6
			h-0.1c0-0.2,0.7-0.5,2-0.9c7-4,16.3-10.9,27.7-20.9c8-7.2,14.7-14.1,20.2-20.8c2.1-2.6,4.3-5.1,6.6-7.5c0.4-0.4,1-0.7,1.9-0.8
			c0.2,0,0.4,0,0.5-0.1l3.5-0.8c0.1,0,0.3,0,0.8-0.1c0.4-0.1,0.9-0.1,1.5-0.2c0.5,0,1.1-0.1,1.5-0.1c0.5,0,0.8-0.1,0.9-0.2h0.2
			c-2.8,4.4-5.9,8.4-9.5,12.3l-1.9,2.1c-8.6,9.7-16.8,17.8-24.5,24.5l-2.3,2c-3,2.8-6.2,5.3-9.5,7.4c-4,2.1-8.1,3.6-12.5,4.4
			C700.7,222.7,695.4,223.5,690.2,223.7z"/>
	</g>
</g>
</svg>
